<svg preserveAspectRatio="none" width="100%" height="100%" overflow="visible" style="display: block;" viewBox="0 0 40 40" fill="none" xmlns="http://www.w3.org/2000/svg">
<g id="Frame" clip-path="url(#clip0_0_10)">
<path id="Vector" d="M23.75 5H27.5C27.8315 5 28.1495 4.8683 28.3839 4.63388C28.6183 4.39946 28.75 4.08152 28.75 3.75C28.75 3.41848 28.8817 3.10054 29.1161 2.86612C29.3505 2.6317 29.6685 2.5 30 2.5C30.3315 2.5 30.6495 2.6317 30.8839 2.86612C31.1183 3.10054 31.25 3.41848 31.25 3.75C31.25 4.74456 30.8549 5.69839 30.1517 6.40165C29.4484 7.10491 28.4946 7.5 27.5 7.5H23.75C23.4185 7.5 23.1005 7.6317 22.8661 7.86612C22.6317 8.10054 22.5 8.41848 22.5 8.75C22.5 9.08152 22.3683 9.39946 22.1339 9.63388C21.8995 9.8683 21.5815 10 21.25 10C20.9185 10 20.6005 9.8683 20.3661 9.63388C20.1317 9.39946 20 9.08152 20 8.75C20 7.75544 20.3951 6.80161 21.0983 6.09835C21.8016 5.39509 22.7554 5 23.75 5ZM16.25 10C16.5815 10 16.8995 9.8683 17.1339 9.63388C17.3683 9.39946 17.5 9.08152 17.5 8.75C17.5 7.0924 18.1585 5.50269 19.3306 4.33058C20.5027 3.15848 22.0924 2.5 23.75 2.5H25C25.3315 2.5 25.6495 2.3683 25.8839 2.13388C26.1183 1.89946 26.25 1.58152 26.25 1.25C26.25 0.918479 26.1183 0.600537 25.8839 0.366117C25.6495 0.131696 25.3315 0 25 0L23.75 0C21.4301 0.0024816 19.206 0.925151 17.5656 2.56556C15.9252 4.20596 15.0025 6.43012 15 8.75C15 9.08152 15.1317 9.39946 15.3661 9.63388C15.6005 9.8683 15.9185 10 16.25 10ZM38.75 33.75C38.75 34.0815 38.6183 34.3995 38.3839 34.6339C38.1495 34.8683 37.8315 35 37.5 35H2.5C2.16848 35 1.85054 34.8683 1.61612 34.6339C1.3817 34.3995 1.25 34.0815 1.25 33.75C1.25 33.4185 1.3817 33.1005 1.61612 32.8661C1.85054 32.6317 2.16848 32.5 2.5 32.5H5.11563C7.26719 28.1516 9.72188 21.7672 9.97813 14.8969C10.0013 14.251 10.2751 13.6394 10.7415 13.192C11.2079 12.7445 11.8302 12.4963 12.4766 12.5H26.2781C26.9221 12.4993 27.5415 12.7472 28.0073 13.192C28.473 13.6368 28.7491 14.2441 28.7781 14.8875C29.1062 22.3625 32.5031 29.3203 34.2922 32.5H37.5C37.8315 32.5 38.1495 32.6317 38.3839 32.8661C38.6183 33.1005 38.75 33.4185 38.75 33.75ZM26.2781 15H23.7781C24.0547 21.8313 26.4953 28.175 28.6359 32.5H31.4484C29.4813 28.7625 26.5906 22.1312 26.2781 15ZM7.89062 32.5H25.8594C23.75 27.9828 21.5266 21.7328 21.2734 15C21.2212 15.0004 21.169 14.9972 21.1172 14.9906L12.4766 15C12.225 21.7281 10.0094 27.9797 7.89062 32.5Z" fill="var(--fill-0, #D9823A)"/>
</g>
<defs>
<clipPath id="clip0_0_10">
<rect width="40" height="40" fill="white"/>
</clipPath>
</defs>
</svg>
