<svg preserveAspectRatio="none" width="100%" height="100%" overflow="visible" style="display: block;" viewBox="0 0 40 40" fill="none" xmlns="http://www.w3.org/2000/svg">
<g id="Frame">
<path id="Vector" d="M32.5 8.74999C30.7972 8.74997 29.1095 9.06792 27.5234 9.68749C25.2859 5.04686 20.7656 2.74061 20.5594 2.63749C20.3857 2.55058 20.1942 2.50534 20 2.50534C19.8058 2.50534 19.6143 2.55058 19.4406 2.63749C19.2328 2.74061 14.7141 5.04686 12.4766 9.68749C10.8905 9.06792 9.20275 8.74997 7.5 8.74999C7.16848 8.74999 6.85054 8.88168 6.61612 9.1161C6.3817 9.35052 6.25 9.66847 6.25 9.99999V22.5C6.25 26.1467 7.69866 29.6441 10.2773 32.2227C12.8559 34.8013 16.3533 36.25 20 36.25C23.6467 36.25 27.1441 34.8013 29.7227 32.2227C32.3013 29.6441 33.75 26.1467 33.75 22.5V9.99999C33.75 9.66847 33.6183 9.35052 33.3839 9.1161C33.1495 8.88168 32.8315 8.74999 32.5 8.74999ZM18.75 33.6812C16.0011 33.3704 13.4626 32.0591 11.6184 29.997C9.77421 27.935 8.75321 25.2664 8.75 22.5V20.0687C11.4989 20.3795 14.0374 21.6909 15.8816 23.753C17.7258 25.815 18.7468 28.4836 18.75 31.25V33.6812ZM18.75 23.3531C17.6037 21.7192 16.1154 20.3545 14.3885 19.3537C12.6616 18.3529 10.7376 17.7401 8.75 17.5578V11.3187C11.4989 11.6295 14.0374 12.9409 15.8816 15.003C17.7258 17.065 18.7468 19.7336 18.75 22.5V23.3531ZM14.7109 10.7984C16.1516 7.79686 18.8375 5.90311 20 5.18905C21.1625 5.90467 23.8484 7.79842 25.2875 10.7984C22.9767 12.2285 21.1378 14.3071 20 16.775C18.8621 14.3066 17.0226 12.228 14.7109 10.7984ZM31.25 22.5C31.2468 25.2664 30.2258 27.935 28.3816 29.997C26.5374 32.0591 23.9989 33.3704 21.25 33.6812V31.25C21.2532 28.4836 22.2742 25.815 24.1184 23.753C25.9626 21.6909 28.5011 20.3795 31.25 20.0687V22.5ZM31.25 17.5578C29.2624 17.7401 27.3384 18.3529 25.6115 19.3537C23.8846 20.3545 22.3963 21.7192 21.25 23.3531V22.5C21.2532 19.7336 22.2742 17.065 24.1184 15.003C25.9626 12.9409 28.5011 11.6295 31.25 11.3187V17.5578Z" fill="var(--fill-0, #D9823A)"/>
</g>
</svg>
