<svg preserveAspectRatio="none" width="100%" height="100%" overflow="visible" style="display: block;" viewBox="0 0 40 40" fill="none" xmlns="http://www.w3.org/2000/svg">
<g id="Frame">
<path id="Vector" d="M36.0797 26.875C36.2448 27.1615 36.2896 27.5017 36.2044 27.8212C36.1192 28.1407 35.9109 28.4134 35.625 28.5797L20.625 37.3297C20.4339 37.4411 20.2166 37.4999 19.9953 37.4999C19.7741 37.4999 19.5568 37.4411 19.3656 37.3297L4.36563 28.5797C4.0839 28.4104 3.88018 28.1369 3.79859 27.8185C3.717 27.5001 3.7641 27.1624 3.92969 26.8785C4.09528 26.5946 4.36603 26.3873 4.68333 26.3015C5.00062 26.2158 5.33893 26.2584 5.625 26.4203L20 34.8031L34.375 26.4203C34.6615 26.2552 35.0018 26.2103 35.3212 26.2956C35.6407 26.3808 35.9135 26.5891 36.0797 26.875ZM34.375 18.9203L20 27.3031L5.625 18.9203C5.34038 18.7786 5.01246 18.7507 4.70798 18.8422C4.40349 18.9337 4.14534 19.1379 3.98605 19.413C3.82676 19.6882 3.77832 20.0137 3.85058 20.3233C3.92284 20.633 4.11037 20.9034 4.375 21.0797L19.375 29.8297C19.5661 29.9411 19.7834 29.9999 20.0047 29.9999C20.2259 29.9999 20.4432 29.9411 20.6344 29.8297L35.6344 21.0797C35.7784 20.9982 35.9049 20.8888 36.0064 20.7581C36.1079 20.6273 36.1824 20.4777 36.2255 20.3179C36.2687 20.1581 36.2798 19.9913 36.258 19.8272C36.2362 19.6631 36.182 19.505 36.0986 19.362C36.0152 19.219 35.9043 19.094 35.7722 18.9942C35.6401 18.8945 35.4895 18.8219 35.3291 18.7808C35.1688 18.7398 35.0019 18.7309 34.8381 18.7549C34.6743 18.7788 34.5169 18.835 34.375 18.9203ZM3.75 12.5C3.7505 12.281 3.80849 12.0661 3.91818 11.8766C4.02786 11.6871 4.18539 11.5298 4.375 11.4203L19.375 2.67029C19.5661 2.55883 19.7834 2.5001 20.0047 2.5001C20.2259 2.5001 20.4432 2.55883 20.6344 2.67029L35.6344 11.4203C35.8231 11.5304 35.9796 11.688 36.0884 11.8774C36.1972 12.0669 36.2545 12.2815 36.2545 12.5C36.2545 12.7184 36.1972 12.9331 36.0884 13.1225C35.9796 13.312 35.8231 13.4696 35.6344 13.5797L20.6344 22.3297C20.4432 22.4411 20.2259 22.4999 20.0047 22.4999C19.7834 22.4999 19.5661 22.4411 19.375 22.3297L4.375 13.5797C4.18539 13.4702 4.02786 13.3128 3.91818 13.1234C3.80849 12.9339 3.7505 12.7189 3.75 12.5ZM7.48125 12.5L20 19.8031L32.5187 12.5L20 5.19685L7.48125 12.5Z" fill="var(--fill-0, #D9823A)"/>
</g>
</svg>
