<svg preserveAspectRatio="none" width="100%" height="100%" overflow="visible" style="display: block;" viewBox="0 0 80 80" fill="none" xmlns="http://www.w3.org/2000/svg">
<g id="Frame">
<path id="Vector" d="M9.9 43.0667C8.91586 43.6579 8.10109 44.4933 7.53462 45.492C6.96816 46.4906 6.66918 47.6186 6.66667 48.7667V59.5667C6.66918 60.7148 6.96816 61.8428 7.53462 62.8414C8.10109 63.84 8.91586 64.6754 9.9 65.2667L19.9 71.2667C20.9369 71.8896 22.1237 72.2187 23.3333 72.2187C24.543 72.2187 25.7298 71.8896 26.7667 71.2667L40 63.3333V45L23.3333 35L9.9 43.0667Z" stroke="var(--stroke-0, #E77F19)" stroke-width="3" stroke-linecap="round" stroke-linejoin="round"/>
<path id="Vector_2" d="M23.3333 55L7.53333 45.5" stroke="var(--stroke-0, #E77F19)" stroke-width="3" stroke-linecap="round" stroke-linejoin="round"/>
<path id="Vector_3" d="M23.3333 55L40 45" stroke="var(--stroke-0, #E77F19)" stroke-width="3" stroke-linecap="round" stroke-linejoin="round"/>
<path id="Vector_4" d="M23.3333 55V72.2333" stroke="var(--stroke-0, #E77F19)" stroke-width="3" stroke-linecap="round" stroke-linejoin="round"/>
<path id="Vector_5" d="M40 45V63.3333L53.2333 71.2667C54.2702 71.8896 55.457 72.2187 56.6667 72.2187C57.8763 72.2187 59.0631 71.8896 60.1 71.2667L70.1 65.2667C71.0841 64.6754 71.8989 63.84 72.4654 62.8414C73.0318 61.8428 73.3308 60.7148 73.3333 59.5667V48.7667C73.3308 47.6186 73.0318 46.4906 72.4654 45.492C71.8989 44.4933 71.0841 43.6579 70.1 43.0667L56.6667 35L40 45Z" stroke="var(--stroke-0, #E77F19)" stroke-width="3" stroke-linecap="round" stroke-linejoin="round"/>
<path id="Vector_6" d="M56.6667 55L40 45" stroke="var(--stroke-0, #E77F19)" stroke-width="3" stroke-linecap="round" stroke-linejoin="round"/>
<path id="Vector_7" d="M56.6667 55L72.4667 45.5" stroke="var(--stroke-0, #E77F19)" stroke-width="3" stroke-linecap="round" stroke-linejoin="round"/>
<path id="Vector_8" d="M56.6667 55V72.2333" stroke="var(--stroke-0, #E77F19)" stroke-width="3" stroke-linecap="round" stroke-linejoin="round"/>
<path id="Vector_9" d="M26.5667 14.7333C25.5825 15.3246 24.7678 16.16 24.2013 17.1586C23.6348 18.1572 23.3359 19.2852 23.3333 20.4333V35L40 45L56.6667 35V20.4333C56.6642 19.2852 56.3652 18.1572 55.7987 17.1586C55.2322 16.16 54.4175 15.3246 53.4333 14.7333L43.4333 8.73333C42.3965 8.11038 41.2096 7.78127 40 7.78127C38.7904 7.78127 37.6035 8.11038 36.5667 8.73333L26.5667 14.7333Z" stroke="var(--stroke-0, #E77F19)" stroke-width="3" stroke-linecap="round" stroke-linejoin="round"/>
<path id="Vector_10" d="M40 26.6667L24.2 17.1667" stroke="var(--stroke-0, #E77F19)" stroke-width="3" stroke-linecap="round" stroke-linejoin="round"/>
<path id="Vector_11" d="M40 26.6667L55.8 17.1667" stroke="var(--stroke-0, #E77F19)" stroke-width="3" stroke-linecap="round" stroke-linejoin="round"/>
<path id="Vector_12" d="M40 45V26.6667" stroke="var(--stroke-0, #E77F19)" stroke-width="3" stroke-linecap="round" stroke-linejoin="round"/>
</g>
</svg>
