<svg width="80" height="80" viewBox="0 0 80 80" fill="none" xmlns="http://www.w3.org/2000/svg">
<rect width="80" height="80" fill="#434242"/>
<g id="About Us">
<rect width="1440" height="3142" transform="translate(-544 -1962)" fill="white"/>
<g id="Frame 1948758667">
<rect width="1440" height="452" transform="translate(-544 -212)" fill="white"/>
<g id="Frame 1948758680">
<rect width="1240" height="164" transform="translate(-444 -24)" fill="white"/>
<g id="Frame 1948758677">
<rect x="-24" y="-24" width="400" height="164" fill="white"/>
<rect x="-24" y="-24" width="400" height="164" stroke="#BFBFBF"/>
<g id="Frame" clip-path="url(#clip0_364_23)">
<g id="Clip path group">
<mask id="mask0_364_23" style="mask-type:luminance" maskUnits="userSpaceOnUse" x="0" y="0" width="80" height="80">
<g id="clip0_4418_9894">
<path id="Vector" d="M80 0H0V80H80V0Z" fill="white"/>
</g>
</mask>
<g mask="url(#mask0_364_23)">
<g id="Group">
<path id="Vector_2" d="M63.3334 30C63.3334 34.8333 61.9001 39.2666 59.4334 42.9666C55.8334 48.3 50.1334 52.0666 43.5001 53.0333C42.3667 53.2333 41.2001 53.3333 40.0001 53.3333C38.8001 53.3333 37.6334 53.2333 36.5001 53.0333C29.8667 52.0666 24.1667 48.3 20.5667 42.9666C18.1001 39.2666 16.6667 34.8333 16.6667 30C16.6667 17.1 27.1001 6.66663 40.0001 6.66663C52.9001 6.66663 63.3334 17.1 63.3334 30Z" stroke="#E77F19" stroke-width="3" stroke-linecap="round" stroke-linejoin="round"/>
<path id="Vector_3" d="M70.8333 61.568L65.3333 62.868C64.1 63.168 63.1333 64.1013 62.8667 65.3347L61.7 70.2347C61.0667 72.9013 57.6667 73.7013 55.9 71.6013L40 53.3347L24.0999 71.6347C22.3332 73.7347 18.9332 72.9347 18.2999 70.268L17.1332 65.368C16.8332 64.1347 15.8665 63.168 14.6665 62.9013L9.16652 61.6013C6.63319 61.0013 5.73319 57.8347 7.56652 56.0013L20.5665 43.0013C24.1665 48.3347 29.8665 52.1013 36.5 53.068C37.6333 53.268 38.8 53.368 40 53.368C41.2 53.368 42.3667 53.268 43.5 53.068C50.1333 52.1013 55.8333 48.3347 59.4333 43.0013L72.4333 56.0013C74.2667 57.8013 73.3667 60.968 70.8333 61.568Z" stroke="#E77F19" stroke-width="3" stroke-linecap="round" stroke-linejoin="round"/>
<path id="Vector_4" d="M41.9334 19.9333L43.9001 23.8666C44.1668 24.3999 44.8668 24.9333 45.5001 25.0333L49.0668 25.6332C51.3334 25.9999 51.8668 27.6666 50.2334 29.2999L47.4668 32.0665C47.0001 32.5332 46.7334 33.4333 46.9001 34.0999L47.7001 37.5333C48.3334 40.2333 46.9001 41.2999 44.5001 39.8666L41.1668 37.8999C40.5668 37.5333 39.5668 37.5333 38.9668 37.8999L35.6334 39.8666C33.2333 41.2666 31.8 40.2333 32.4333 37.5333L33.2333 34.0999C33.3668 33.4666 33.1333 32.5332 32.6667 32.0665L29.9 29.2999C28.2667 27.6666 28.8 26.0332 31.0667 25.6332L34.6334 25.0333C35.2334 24.9333 35.9334 24.3999 36.2001 23.8666L38.1668 19.9333C39.1334 17.7999 40.8668 17.7999 41.9334 19.9333Z" stroke="#E77F19" stroke-width="3" stroke-linecap="round" stroke-linejoin="round"/>
</g>
</g>
</g>
</g>
</g>
</g>
</g>
</g>
<defs>
<clipPath id="clip0_364_23">
<rect width="80" height="80" fill="white"/>
</clipPath>
</defs>
</svg>
