<svg preserveAspectRatio="none" width="100%" height="100%" overflow="visible" style="display: block;" viewBox="0 0 18 18" fill="none" xmlns="http://www.w3.org/2000/svg">
<g id="Frame">
<path id="Vector" d="M12.9375 5.0625C12.9376 4.30774 12.7207 3.56886 12.3128 2.93385C11.9048 2.29884 11.3229 1.79446 10.6365 1.48078C9.94997 1.16709 9.18779 1.05732 8.44068 1.16453C7.69357 1.27175 6.99302 1.59143 6.42245 2.0855C5.85188 2.57958 5.43533 3.22724 5.22242 3.95135C5.0095 4.67545 5.00919 5.4455 5.22151 6.16978C5.43384 6.89406 5.84986 7.54206 6.42002 8.0366C6.99019 8.53114 7.69048 8.8514 8.4375 8.95922V16.3125C8.4375 16.4617 8.49676 16.6048 8.60225 16.7102C8.70774 16.8157 8.85082 16.875 9 16.875C9.14918 16.875 9.29226 16.8157 9.39775 16.7102C9.50324 16.6048 9.5625 16.4617 9.5625 16.3125V8.95922C10.499 8.82272 11.3552 8.354 11.9748 7.63862C12.5944 6.92324 12.9361 6.0089 12.9375 5.0625ZM9 7.875C8.44374 7.875 7.89997 7.71005 7.43746 7.40101C6.97495 7.09197 6.61446 6.65271 6.40159 6.1388C6.18872 5.62488 6.13302 5.05938 6.24154 4.51381C6.35006 3.96824 6.61793 3.4671 7.01126 3.07376C7.4046 2.68043 7.90574 2.41256 8.45131 2.30404C8.99688 2.19552 9.56238 2.25122 10.0763 2.46409C10.5902 2.67696 11.0295 3.03745 11.3385 3.49996C11.6476 3.96247 11.8125 4.50624 11.8125 5.0625C11.8125 5.43184 11.7398 5.79757 11.5984 6.1388C11.4571 6.48003 11.2499 6.79007 10.9887 7.05124C10.7276 7.3124 10.4175 7.51957 10.0763 7.66091C9.73507 7.80225 9.36934 7.875 9 7.875Z" fill="var(--fill-0, #333333)"/>
</g>
</svg>
