<svg preserveAspectRatio="none" width="100%" height="100%" overflow="visible" style="display: block;" viewBox="0 0 18 18" fill="none" xmlns="http://www.w3.org/2000/svg">
<g id="Frame">
<path id="Vector" d="M15.6354 11.1417L12.323 9.65742L12.3138 9.6532C12.1419 9.57965 11.9543 9.55014 11.768 9.56733C11.5818 9.58451 11.4028 9.64786 11.2472 9.75164C11.2289 9.76374 11.2113 9.77689 11.1945 9.79102L9.48305 11.25C8.39883 10.7234 7.27945 9.61242 6.75281 8.54227L8.21391 6.80484C8.22797 6.78727 8.24133 6.76969 8.25398 6.7507C8.35554 6.59553 8.41715 6.41765 8.43334 6.2329C8.44953 6.04816 8.4198 5.86228 8.3468 5.6918V5.68336L6.85828 2.36531C6.76177 2.14261 6.59582 1.95709 6.38521 1.83645C6.1746 1.71581 5.93062 1.66652 5.68969 1.69594C4.73693 1.82131 3.86239 2.28921 3.22941 3.01225C2.59642 3.7353 2.24828 4.66403 2.25 5.625C2.25 11.2078 6.79219 15.75 12.375 15.75C13.336 15.7517 14.2647 15.4036 14.9877 14.7706C15.7108 14.1376 16.1787 13.2631 16.3041 12.3103C16.3335 12.0695 16.2843 11.8255 16.1638 11.6149C16.0433 11.4043 15.858 11.2383 15.6354 11.1417ZM12.375 14.625C9.98885 14.6224 7.70118 13.6733 6.01392 11.9861C4.32665 10.2988 3.37761 8.01115 3.375 5.625C3.37235 4.93839 3.61972 4.27429 4.07091 3.75673C4.52209 3.23917 5.14624 2.90353 5.8268 2.8125C5.82652 2.81531 5.82652 2.81813 5.8268 2.82094L7.30336 6.12563L5.85 7.86516C5.83525 7.88213 5.82185 7.90023 5.80992 7.9193C5.70411 8.08166 5.64204 8.26861 5.62972 8.46201C5.6174 8.65542 5.65525 8.84873 5.73961 9.0232C6.37664 10.3261 7.68938 11.629 9.00633 12.2653C9.18208 12.3489 9.37651 12.3854 9.57062 12.3714C9.76472 12.3573 9.95186 12.2932 10.1137 12.1852C10.1318 12.173 10.1492 12.1599 10.1658 12.1458L11.8751 10.6875L15.1798 12.1676C15.1798 12.1676 15.1854 12.1676 15.1875 12.1676C15.0976 12.8491 14.7624 13.4745 14.2448 13.9268C13.7271 14.3791 13.0624 14.6273 12.375 14.625Z" fill="var(--fill-0, #333333)"/>
</g>
</svg>
