<svg preserveAspectRatio="none" width="100%" height="100%" overflow="visible" style="display: block;" viewBox="0 0 28 28" fill="none" xmlns="http://www.w3.org/2000/svg">
<g id="Frame">
<path id="Vector" d="M26.25 14C26.2507 14.2971 26.1745 14.5893 26.0289 14.8482C25.8832 15.1072 25.673 15.324 25.4187 15.4777L9.66 25.118C9.39431 25.2807 9.09001 25.3695 8.77852 25.3752C8.46703 25.381 8.15965 25.3035 7.88813 25.1508C7.61918 25.0004 7.39515 24.7811 7.23905 24.5155C7.08296 24.2498 7.00045 23.9473 7 23.6392V4.36078C7.00045 4.05266 7.08296 3.75021 7.23905 3.48455C7.39515 3.21888 7.61918 2.99959 7.88813 2.84922C8.15965 2.69647 8.46703 2.61899 8.77852 2.62475C9.09001 2.63052 9.39431 2.71934 9.66 2.88203L25.4187 12.5223C25.673 12.676 25.8832 12.8928 26.0289 13.1518C26.1745 13.4107 26.2507 13.7029 26.25 14Z" fill="var(--fill-0, white)"/>
</g>
</svg>
