<svg preserveAspectRatio="none" width="100%" height="100%" overflow="visible" style="display: block;" viewBox="0 0 40 40" fill="none" xmlns="http://www.w3.org/2000/svg">
<g id="Frame">
<path id="Vector" d="M35 7.5V32.5C35 33.163 34.7366 33.7989 34.2678 34.2678C33.7989 34.7366 33.163 35 32.5 35H21.25C20.9185 35 20.6005 34.8683 20.3661 34.6339C20.1317 34.3995 20 34.0815 20 33.75C20 33.4185 20.1317 33.1005 20.3661 32.8661C20.6005 32.6317 20.9185 32.5 21.25 32.5H32.5V7.5H7.5V22.5C7.5 22.8315 7.3683 23.1495 7.13388 23.3839C6.89946 23.6183 6.58152 23.75 6.25 23.75C5.91848 23.75 5.60054 23.6183 5.36612 23.3839C5.1317 23.1495 5 22.8315 5 22.5V7.5C5 6.83696 5.26339 6.20107 5.73223 5.73223C6.20107 5.26339 6.83696 5 7.5 5H32.5C33.163 5 33.7989 5.26339 34.2678 5.73223C34.7366 6.20107 35 6.83696 35 7.5ZM19.6344 24.1156C19.5183 23.9994 19.3804 23.9072 19.2287 23.8443C19.0769 23.7814 18.9143 23.749 18.75 23.749C18.5857 23.749 18.4231 23.7814 18.2713 23.8443C18.1196 23.9072 17.9817 23.9994 17.8656 24.1156L10 31.9828L7.13437 29.1156C7.01824 28.9995 6.88036 28.9074 6.72862 28.8445C6.57688 28.7817 6.41424 28.7493 6.25 28.7493C6.08576 28.7493 5.92312 28.7817 5.77138 28.8445C5.61964 28.9074 5.48176 28.9995 5.36562 29.1156C5.24949 29.2318 5.15736 29.3696 5.09451 29.5214C5.03165 29.6731 4.9993 29.8358 4.9993 30C4.9993 30.1642 5.03165 30.3269 5.09451 30.4786C5.15736 30.6304 5.24949 30.7682 5.36562 30.8844L9.11562 34.6344C9.23172 34.7506 9.36958 34.8428 9.52132 34.9057C9.67307 34.9686 9.83573 35.001 10 35.001C10.1643 35.001 10.3269 34.9686 10.4787 34.9057C10.6304 34.8428 10.7683 34.7506 10.8844 34.6344L19.6344 25.8844C19.7506 25.7683 19.8428 25.6304 19.9057 25.4787C19.9686 25.3269 20.001 25.1643 20.001 25C20.001 24.8357 19.9686 24.6731 19.9057 24.5213C19.8428 24.3696 19.7506 24.2317 19.6344 24.1156Z" fill="var(--fill-0, #D9823A)"/>
</g>
</svg>
