<svg preserveAspectRatio="none" width="100%" height="100%" overflow="visible" style="display: block;" viewBox="0 0 40 40" fill="none" xmlns="http://www.w3.org/2000/svg">
<g id="Frame">
<path id="Vector" d="M3.75 20C3.75331 17.0173 4.93964 14.1578 7.0487 12.0487C9.15777 9.93964 12.0173 8.75331 15 8.75H31.9828L30.3656 7.13437C30.1311 6.89982 29.9993 6.5817 29.9993 6.25C29.9993 5.91829 30.1311 5.60018 30.3656 5.36562C30.6002 5.13107 30.9183 4.9993 31.25 4.9993C31.5817 4.9993 31.8998 5.13107 32.1344 5.36562L35.8844 9.11562C36.0006 9.23172 36.0928 9.36958 36.1557 9.52132C36.2186 9.67307 36.251 9.83573 36.251 10C36.251 10.1643 36.2186 10.3269 36.1557 10.4787C36.0928 10.6304 36.0006 10.7683 35.8844 10.8844L32.1344 14.6344C31.8998 14.8689 31.5817 15.0007 31.25 15.0007C30.9183 15.0007 30.6002 14.8689 30.3656 14.6344C30.1311 14.3998 29.9993 14.0817 29.9993 13.75C29.9993 13.4183 30.1311 13.1002 30.3656 12.8656L31.9828 11.25H15C12.6801 11.2525 10.456 12.1752 8.81556 13.8156C7.17515 15.456 6.25248 17.6801 6.25 20C6.25 20.3315 6.1183 20.6495 5.88388 20.8839C5.64946 21.1183 5.33152 21.25 5 21.25C4.66848 21.25 4.35054 21.1183 4.11612 20.8839C3.8817 20.6495 3.75 20.3315 3.75 20ZM35 18.75C34.6685 18.75 34.3505 18.8817 34.1161 19.1161C33.8817 19.3505 33.75 19.6685 33.75 20C33.7475 22.3199 32.8248 24.544 31.1844 26.1844C29.544 27.8249 27.3199 28.7475 25 28.75H8.01719L9.63437 27.1344C9.75051 27.0182 9.84264 26.8804 9.90549 26.7286C9.96834 26.5769 10.0007 26.4142 10.0007 26.25C10.0007 26.0858 9.96834 25.9231 9.90549 25.7714C9.84264 25.6196 9.75051 25.4818 9.63437 25.3656C9.51824 25.2495 9.38036 25.1574 9.22862 25.0945C9.07688 25.0317 8.91424 24.9993 8.75 24.9993C8.58576 24.9993 8.42312 25.0317 8.27138 25.0945C8.11964 25.1574 7.98176 25.2495 7.86563 25.3656L4.11563 29.1156C3.9994 29.2317 3.90721 29.3696 3.8443 29.5213C3.7814 29.6731 3.74902 29.8357 3.74902 30C3.74902 30.1643 3.7814 30.3269 3.8443 30.4787C3.90721 30.6304 3.9994 30.7683 4.11563 30.8844L7.86563 34.6344C7.98176 34.7505 8.11964 34.8426 8.27138 34.9055C8.42312 34.9683 8.58576 35.0007 8.75 35.0007C8.91424 35.0007 9.07688 34.9683 9.22862 34.9055C9.38036 34.8426 9.51824 34.7505 9.63437 34.6344C9.75051 34.5182 9.84264 34.3804 9.90549 34.2286C9.96834 34.0769 10.0007 33.9142 10.0007 33.75C10.0007 33.5858 9.96834 33.4231 9.90549 33.2714C9.84264 33.1196 9.75051 32.9818 9.63437 32.8656L8.01719 31.25H25C27.9827 31.2467 30.8422 30.0604 32.9513 27.9513C35.0604 25.8422 36.2467 22.9827 36.25 20C36.25 19.6685 36.1183 19.3505 35.8839 19.1161C35.6495 18.8817 35.3315 18.75 35 18.75Z" fill="var(--fill-0, #E77F19)"/>
</g>
</svg>
